<?xml version="1.0" encoding="UTF-8"?>
<svg id="Capa_2" data-name="Capa 2" xmlns="http://www.w3.org/2000/svg" viewBox="0 0 1080 1080">
  <defs>
    <style>
      .cls-1 {
        fill: #fdfdfd;
      }

      .cls-2 {
        fill: #fefefe;
      }
    </style>
  </defs>
  <g>
    <path class="cls-2" d="m559.86,379.68c0-49.34.05-98.68-.09-148.02-.01-3.97,1.02-5.18,5.02-5.06,10.04.29,20.1.39,30.14.09,19.53-.59,34.94,15.74,34.97,35.04.02,13.2.14,26.4-.05,39.59-.06,4.31,1.38,5.79,5.73,5.68,10.64-.26,21.29,0,31.94-.16,3.16-.05,4.29,1.09,4.13,4.19-.31,5.97.25,11.97-.8,17.93-2.45,13.83-15.84,26.69-34.31,26.75-6.59.02-6.66.41-6.65,7.03.03,47.09.04,94.18.1,141.27,0,6.01.09,12.05,5.78,16.08,2.98,2.11,6.14,3.69,9.86,3.73,7.2.09,14.4.25,21.59.13,3.33-.06,4.43,1.16,4.41,4.46-.13,14.85-.08,29.69-.02,44.54.01,2.74-.81,4.02-3.83,4.12-24.6.79-49.17.92-73.67-1.92-15.4-1.78-27.6-12.71-31.6-27.92-1.84-7.02-2.6-14.16-2.62-21.34-.09-48.74-.05-97.48-.05-146.22h.03Z"/>
    <path class="cls-1" d="m592.62,798.16c3.08-4.72,3.39-9.75,4.74-14.36,9.65-32.86,19-65.82,28.5-98.73,6.72-23.29,13.52-46.55,20.31-69.83,3.39-11.65,10.4-17.47,24.21-18.28,12.85-.75,25.77-.29,38.67-.38,2.99-.02,3.04,1.45,2.22,3.8-4.01,11.45-7.96,22.92-11.87,34.41-8.58,25.19-17.09,50.41-25.7,75.59-10.31,30.15-20.73,60.26-31.04,90.41-7.16,20.93-14.28,41.88-21.2,62.89-1.06,3.23-2.82,4.23-5.85,4.22-14.99-.01-29.99-.1-44.98.11-4.48.06-5.06-3.31-6.01-6.01-7.35-20.87-14.49-41.82-21.71-62.74-7.07-20.5-14.1-41.02-21.22-61.5-12.18-35.05-24.43-70.06-36.61-105.11-3.78-10.88-7.35-21.84-11.15-32.72-.89-2.55-.04-3.29,2.35-3.28,18.59.03,37.18.09,55.77.04,2.67,0,3.27,1.77,3.8,3.63,4.98,17.4,9.91,34.82,14.83,52.24,7.13,25.21,14.24,50.41,21.35,75.62,5.4,19.14,10.68,38.31,16.24,57.41,1.18,4.05,1.66,8.44,4.34,12.58Z"/>
    <path class="cls-2" d="m194.13,596.69c8.25,0,16.51.37,24.73-.15,4.51-.28,6.13,1.8,7.14,5.37,10.07,35.71,20.1,71.43,30.19,107.13,8.01,28.35,16.1,56.68,24.15,85.02.35,1.24.23,3,2.15,2.81,1.51-.15,1.39-1.71,1.72-2.83,5.91-20.39,11.87-40.76,17.74-61.17,5.37-18.69,10.6-37.42,15.98-56.11,6.09-21.13,12.11-42.28,18.48-63.33,3.46-11.45,12.41-16.2,23.62-16.61,12.73-.47,25.48-.17,38.22-.22,4.05-.02,2.88,2.52,2.17,4.62-5.79,17.16-11.6,34.32-17.48,51.45-8.6,25.04-17.36,50.02-25.87,75.09-10.48,30.87-20.72,61.82-31.16,92.71-4.79,14.17-9.83,28.26-14.65,42.42-1.21,3.56-3.11,5.13-7.15,5.06-14.24-.24-28.49-.15-42.73,0-3.69.04-5.47-1.19-6.71-4.91-5.71-17.02-11.93-33.87-17.79-50.83-8.35-24.17-16.51-48.41-24.83-72.59-5.75-16.7-11.66-33.35-17.47-50.03-10.23-29.39-20.45-58.78-30.64-88.17-1.53-4.4-1.17-4.8,3.63-4.8,8.85,0,17.69,0,26.54,0,0,.03,0,.05,0,.08Z"/>
    <path class="cls-2" d="m464.63,493.12c0,30.03-.05,54.46.05,78.89.02,3.61-1.04,5.03-4.88,5-20.54-.15-41.07-.15-61.61.02-3.68.03-4.57-1.29-4.55-4.66.23-47.51-.86-95.04.59-142.54.69-22.56,6.05-44.3,17.52-63.92,12.35-21.13,29.96-36.77,52.71-46.28,22.85-9.55,46.78-13.33,71.41-13.4,10.47-.03,10.41-.08,10.4,10.42-.01,18.59.07,37.18.1,55.76,0,5.61-.31,5.93-5.77,5.83-10.05-.17-20.12-.38-30.1.7-12.44,1.35-24.14,5.17-32.71,14.87-7.77,8.79-11.34,19.59-12.29,31.18-2.02,24.55-.31,49.15-.88,68.12Z"/>
    <path class="cls-2" d="m469.71,732.37c0,43.18,0,86.36,0,129.54,0,5.89-.09,6-6.07,6-14.84.02-29.69-.09-44.53.07-3.78.04-4.88-1.31-4.88-4.99.04-78.72-.06-157.43-.03-236.15,0-18.24,11.54-29.8,29.66-30.11,6.89-.12,13.8.2,20.69-.13,4.18-.2,5.44,1.23,5.39,5.32-.19,17.69-.13,35.38-.13,53.07-.01,25.79,0,51.58,0,77.37h-.09Z"/>
    <path class="cls-2" d="m829.83,459.74c-27.59,0-55.18.03-82.78-.05-3.23,0-5.28.57-4.97,4.39,1.06,13.28,3.37,26.21,11.17,37.41,8.14,11.7,18.89,19.08,33.52,20.74,13.59,1.54,26.52.48,38.93-5.63,5.14-2.53,9.21-6.18,12.59-10.61,6.14-8.04,14.07-12.31,24.24-12.32,16.05-.01,32.09-.01,48.14-.12,3.35-.02,4.3,1.27,3.35,4.42-8.57,28.34-24.49,51.07-50.31,66.34-22.93,13.56-47.97,18.02-74.2,17.43-18.15-.41-35.77-3.29-52.34-11.17-22.61-10.76-39.26-27.62-50.6-49.77-11.56-22.59-15.54-47-16.58-72.04-.73-17.43.21-34.8,3.78-51.86,5.5-26.31,16.09-50.2,36.55-68.5,15-13.41,32.5-21.89,52.5-25.57,28.82-5.3,57.03-3.74,84.35,6.83,30.79,11.93,50.51,34.65,61.68,65.45,9.25,25.53,10.8,51.99,10.59,78.73-.03,4.3-1.91,6.02-6.37,6-27.74-.14-55.48-.07-83.23-.07v-.04Zm-35.69-45.53c15.72,0,31.45-.13,47.16.08,4.34.06,5.19-1.7,4.46-5.39-.58-2.93-.88-5.92-1.53-8.84-1.81-8.21-4.31-16.13-9.35-23.07-9.11-12.54-22.11-17.43-36.84-18.26-12.99-.73-25.31,1.94-35.91,10.13-13.58,10.5-18.66,25.1-20.01,41.52-.29,3.53,1.64,3.83,4.4,3.82,15.87-.07,31.74-.03,47.61-.03v.04Z"/>
    <path class="cls-2" d="m385.3,428.58c-.49,18.03.51,38.56-.96,59.1-2.75,38.21-25.47,69.97-61.58,83.71-16.93,6.45-34.47,8.75-52.28,9.6-11.35.54-22.69,1.44-34.14.44-17.07-1.49-32.69-6.8-47.24-15.63-18.47-11.22-27.87-28.18-31.22-49.04-2.6-16.17-2.34-32.19,1.69-48.15,4.53-17.96,15.39-30.74,31.35-39.66,16.8-9.39,34.94-15.04,53.78-17.94,15.36-2.36,30.8-4.21,45.97-7.63,8.85-2,17.26-5.14,23.35-12.33,7.7-9.09,4.25-24.21-6.86-28.68-19.51-7.84-39.44-9.07-59.6-2.33-6.07,2.03-10.74,5.88-13.95,11.37-1.62,2.77-3.65,3.8-6.91,3.77-19.19-.17-38.39-.11-57.58-.13-5.76,0-6.06-.24-4.96-5.71,3.57-17.8,12.31-32.68,25.86-44.67,13.48-11.94,29.59-18.34,47.08-21.71,23.69-4.56,47.4-3.69,71.12-.31,15.38,2.19,30.15,6.18,43.65,14.27,22.74,13.64,33.36,33.94,33.43,60.12.04,16.34,0,32.69,0,51.53Zm-65.94,15.9c.07-3.21-.82-3.96-3.97-2.53-11.49,5.22-23.63,8.46-35.86,11.48-12.32,3.04-25.04,4.71-36.76,9.93-7.65,3.41-14.38,7.82-17.62,16.21-2.44,6.32-2.89,12.75-2.52,19.41.87,15.81,10.68,24.68,24.91,27.33,11.4,2.12,22.75,1.01,33.7-2.53,15.97-5.16,27.25-15.45,33.45-31.34,4.36-11.19,4.77-22.76,4.65-34.47,0-4.49-.07-8.99.03-13.48Z"/>
    <path class="cls-2" d="m885.7,868.03c-7.8,0-15.6-.11-23.39.05-3.64.07-5.57-.95-6.75-4.82-4.85-15.89-10.16-31.65-15.23-47.47-.97-3.03-2.73-4.16-5.96-4.15-32.39.1-64.78.11-97.17,0-3.78-.01-5.24,1.7-6.24,4.99-4.84,15.88-9.91,31.7-14.72,47.59-.87,2.87-2.42,3.76-5.18,3.75-16.65-.04-33.29-.02-49.94.01-3.86,0-4.3-.99-2.86-4.86,7.15-19.17,13.83-38.51,20.65-57.8,7.24-20.46,14.43-40.94,21.67-61.4,8.92-25.25,17.83-50.51,26.81-75.74,6.32-17.76,12.81-35.46,19.1-53.23,4.37-12.36,13.57-17.89,26.05-18.2,13.79-.34,27.59.07,41.38-.13,3.63-.05,4.19,2.48,5.02,4.7,3.93,10.52,7.66,21.11,11.51,31.66,6.1,16.73,12.27,33.43,18.34,50.17,7.54,20.83,14.95,41.7,22.5,62.53,8.56,23.61,17.24,47.18,25.82,70.79,5.63,15.47,11.17,30.98,16.76,46.46,1.19,3.3.58,5.12-3.44,5.06-8.25-.14-16.49-.04-24.74-.04,0,.03,0,.06,0,.09Zm-67.11-101.31c4.85,0,5.23-.48,3.69-5.2-7.73-23.59-15.47-47.18-23.2-70.77-3.63-11.08-7.19-22.17-10.9-33.22-.53-1.58-.67-4.17-2.69-4.13-1.78.04-1.64,2.55-2.13,4.04-1.69,5.1-3.21,10.26-4.89,15.37-9.77,29.67-19.49,59.37-29.46,88.97-1.4,4.15-.39,5.01,3.52,4.97,11.09-.12,22.17-.04,33.26-.04,10.94,0,21.87,0,32.81,0Z"/>
  </g>
  <g>
    <path class="cls-2" d="m190.69,216.49v-3.62c0-6.25,3.75-9.08,11.71-9.08,1.78,0,2.57.07,4.08.4v7.3h-1.45c-3.09,0-3.88.86-3.88,3.82v1.18h5.4v6.84h-5.4v25.79h-10.46v-25.79h-4.54v-6.84h4.54Z"/>
    <path class="cls-2" d="m240.3,249.12v-4.67c-2.57,3.75-5.86,5.59-10,5.59s-7.76-1.91-9.54-4.8c-.99-1.58-1.51-4.15-1.51-6.97v-21.71h10.46v19.15c0,3.68,1.78,5.72,4.61,5.72,3.68,0,5.99-3.09,5.99-7.9v-16.98h10.46v32.57h-10.46Z"/>
    <path class="cls-2" d="m275.11,216.49v4.74c2.5-3.68,5.86-5.53,10-5.53s7.76,1.84,9.54,4.74c.99,1.58,1.51,4.15,1.51,6.97v21.71h-10.46v-19.15c0-3.62-1.78-5.72-4.67-5.72-3.62,0-5.92,3.09-5.92,7.9v16.98h-10.46v-32.63h10.46Z"/>
    <path class="cls-2" d="m322.55,249.98c-4.67,0-7.83-1.78-10.26-5.92-2.04-3.22-2.76-6.32-2.76-10.79,0-5.46.99-9.61,3.03-12.44,2.37-3.16,6.51-5.2,10.72-5.2,3.95,0,6.71,1.45,8.75,4.54v-14.94h10.53v43.89h-10.53v-3.95c-2.37,3.42-5,4.8-9.47,4.8Zm-2.17-17.24c0,5.72,1.97,8.62,5.99,8.62,3.62,0,5.92-3.29,5.92-8.29,0-5.46-2.17-8.62-5.86-8.62-3.88,0-6.05,3.03-6.05,8.29Z"/>
    <path class="cls-2" d="m366.05,249.91c-6.38,0-10.4-3.55-10.4-9.15,0-3.68,1.58-6.78,4.21-8.42,2.11-1.25,6.18-2.37,11.65-3.22,3.75-.53,4.8-1.12,4.8-2.63,0-2.04-1.65-3.29-4.47-3.29-3.22,0-4.61,1.05-5.13,3.68h-9.94c.72-4.41,1.84-6.65,4.67-8.55,2.43-1.78,5.86-2.63,10.4-2.63,9.34,0,14.01,3.16,14.01,9.47v17.5c0,2.96.79,4.74,2.3,5.33v1.12h-10.99l-.72-3.82c-3.16,3.49-5.72,4.61-10.4,4.61Zm8.16-15.26c-.46.13.92-.2-4.34,1.18-2.83.79-3.82,1.65-3.82,3.49,0,2.5,1.38,3.75,4.15,3.75,3.42,0,6.05-2.63,6.05-5.99v-3.16c-.72.46-.79.46-2.04.72Z"/>
    <path class="cls-2" d="m429.08,243c-2.57,4.67-7.11,7.11-13.16,7.11-5,0-9.21-1.58-12.3-4.28-2.96-2.83-4.41-7.11-4.41-12.96,0-5.2,1.45-9.61,4.28-12.5,2.9-3.09,7.63-4.93,12.44-4.93,8.42,0,14.74,5.53,15.07,13.09h-10.66c-.72-2.96-1.97-4.21-4.41-4.21-2.04,0-3.49.86-4.28,2.5-.79,1.51-1.32,4.08-1.32,6.25,0,5.59,1.84,8.36,5.59,8.36,2.63,0,3.68-1.05,4.54-4.8h10.53c-.2,2.17-.66,4.08-1.91,6.38Z"/>
    <path class="cls-2" d="m454.22,205.24v8.36h-10.46v-8.36h10.46Zm0,11.25v32.63h-10.46v-32.63h10.46Z"/>
    <path class="cls-2" d="m498.37,220.63c2.83,2.83,4.21,6.78,4.21,11.98s-1.71,9.47-4.54,12.3c-3.22,3.22-8.09,5.13-13.36,5.13-4.8,0-9.74-1.97-12.9-5.33-2.9-2.96-4.34-6.97-4.34-12.11,0-4.74,1.51-9.01,4.34-11.84,3.36-3.36,8.03-5.26,13.22-5.26s10.13,1.78,13.36,5.13Zm-19.94,11.98c0,5.79,2.37,8.95,6.58,8.95s6.45-3.22,6.45-8.82-2.3-8.88-6.45-8.88-6.58,3.22-6.58,8.75Zm18.03-29.08l-10.53,9.01h-7.17l6.51-9.01h11.19Z"/>
    <path class="cls-2" d="m526.21,216.49v4.74c2.5-3.68,5.86-5.53,10-5.53s7.76,1.84,9.54,4.74c.99,1.58,1.51,4.15,1.51,6.97v21.71h-10.46v-19.15c0-3.62-1.78-5.72-4.67-5.72-3.62,0-5.92,3.09-5.92,7.9v16.98h-10.46v-32.63h10.46Z"/>
  </g>
</svg>