<?xml version="1.0" encoding="UTF-8" standalone="no"?>
<svg
   width="20"
   height="20"
   version="1.1"
   id="svg8"
   sodipodi:docname="OOjs_UI_icon_alert-destructive.svg"
   inkscape:version="1.1 (c68e22c387, 2021-05-23)"
   xmlns:inkscape="http://www.inkscape.org/namespaces/inkscape"
   xmlns:sodipodi="http://sodipodi.sourceforge.net/DTD/sodipodi-0.dtd"
   xmlns="http://www.w3.org/2000/svg"
   xmlns:svg="http://www.w3.org/2000/svg">
  <defs
     id="defs12">
    <linearGradient
       id="grd1"
       gradientUnits="userSpaceOnUse"
       x1="103.444"
       y1="181.09"
       x2="457.674"
       y2="564.789"
       gradientTransform="translate(-277.50808,-232.97321)">
      <stop
         offset="0"
         stop-color="#f2b600"
         id="stop986" />
      <stop
         offset="1"
         stop-color="#f29600"
         id="stop988" />
    </linearGradient>
    <linearGradient
       id="grd2"
       gradientUnits="userSpaceOnUse"
       x1="488.54"
       y1="496.029"
       x2="146.776"
       y2="231.644"
       gradientTransform="translate(-277.50808,-232.97321)">
      <stop
         offset="0"
         stop-color="#d88500"
         id="stop991" />
      <stop
         offset="1"
         stop-color="#ffcc33"
         id="stop993" />
    </linearGradient>
    <linearGradient
       id="grd3"
       gradientUnits="userSpaceOnUse"
       x1="168.374"
       y1="404.901"
       x2="562.338"
       y2="146.4"
       gradientTransform="translate(-277.50808,-232.97321)">
      <stop
         offset="0"
         stop-color="#ffd657"
         id="stop996" />
      <stop
         offset="1"
         stop-color="#f2b600"
         id="stop998" />
    </linearGradient>
    <linearGradient
       id="grd4"
       gradientUnits="userSpaceOnUse"
       x1="199.85"
       y1="139.147"
       x2="355.078"
       y2="295.632"
       gradientTransform="translate(-277.50808,-232.97321)">
      <stop
         offset="0"
         stop-color="#fff1c5"
         id="stop1001" />
      <stop
         offset="1"
         stop-color="#ffcc33"
         id="stop1003" />
    </linearGradient>
    <radialGradient
       id="grd5"
       gradientUnits="userSpaceOnUse"
       cx="288.632"
       cy="198.455"
       r="274.944"
       gradientTransform="translate(-277.50808,-232.97321)">
      <stop
         offset="0"
         stop-color="#ffffff"
         id="stop1006" />
      <stop
         offset="0.5"
         stop-color="#ffffff"
         id="stop1008" />
      <stop
         offset="1"
         stop-color="#d5d5d5"
         id="stop1010" />
    </radialGradient>
  </defs>
  <sodipodi:namedview
     id="namedview10"
     pagecolor="#505050"
     bordercolor="#eeeeee"
     borderopacity="1"
     inkscape:pageshadow="0"
     inkscape:pageopacity="0"
     inkscape:pagecheckerboard="0"
     showgrid="false"
     inkscape:zoom="10.185615"
     inkscape:cx="9.9650337"
     inkscape:cy="9.9650337"
     inkscape:window-width="1280"
     inkscape:window-height="737"
     inkscape:window-x="-8"
     inkscape:window-y="-8"
     inkscape:window-maximized="1"
     inkscape:current-layer="svg8" />
  <title
     id="title2">alert</title>
  <style
     type="text/css"
     id="style4">* { fill: #d33 }</style>
  <path
     id="path6"
     d="M 10 1.2109375 A 1.85 1.85 0 0 0 8.4804688 2.3007812 L 0.359375 16.359375 C -0.480625 17.809375 0.21085912 19 1.8808594 19 L 18.119141 19 C 19.789141 19 20.480625 17.809375 19.640625 16.359375 L 11.529297 2.3007812 A 1.85 1.85 0 0 0 10 1.2109375 z M 10.263672 6.625 C 10.749039 6.625 11.140625 7.0396797 11.140625 7.5527344 C 11.140625 8.065789 10.749039 8.4804687 10.263672 8.4804688 C 10.189885 8.4804688 10.117286 8.4711506 10.048828 8.453125 C 10.063497 8.5003488 10.076833 8.5525896 10.080078 8.609375 L 10.263672 11.818359 C 10.271997 11.964008 10.234036 12.090192 10.173828 12.15625 L 11.033203 12.609375 L 11.619141 11.859375 C 11.710591 11.729328 11.849005 11.660288 11.988281 11.664062 L 13.318359 11.660156 C 13.533985 11.659737 13.617608 11.723706 13.736328 11.873047 L 16.328125 15.220703 C 16.352035 15.279433 16.331895 15.338716 16.265625 15.34375 L 9.0585938 15.353516 C 8.9935702 15.347616 8.9459528 15.331926 8.9707031 15.253906 L 10.75 12.974609 L 8.5722656 11.826172 C 8.5569293 11.85083 8.5432531 11.877317 8.5234375 11.896484 L 8.8300781 13.173828 C 8.8343284 13.191337 8.8323891 13.207608 8.8320312 13.224609 C 8.8379406 13.244238 8.8396965 13.264249 8.8398438 13.285156 L 8.8535156 15.148438 C 8.8543546 15.267575 8.7550331 15.355352 8.6308594 15.345703 L 8.1660156 15.310547 C 8.0414226 15.300899 7.9407116 15.197684 7.9394531 15.078125 L 7.9257812 13.324219 L 7.5800781 11.884766 L 5.8027344 15.005859 C 5.6848537 15.213514 5.5048473 15.321461 5.4003906 15.248047 L 5.0117188 14.974609 C 4.9076815 14.901619 4.9188086 14.674452 5.0371094 14.466797 L 6.8828125 11.222656 C 6.9061541 11.181602 6.9319249 11.146729 6.9589844 11.115234 C 6.9562191 11.071089 6.9613394 11.02826 6.9746094 10.984375 L 6.4746094 10.720703 C 6.4261214 10.695118 6.3791485 10.670008 6.3339844 10.644531 L 6.3320312 10.648438 C 6.2657492 10.774287 6.1443035 10.815599 6.0625 10.742188 L 5.7558594 10.466797 C 5.6736364 10.392967 5.6618144 10.232854 5.7285156 10.107422 L 6.7675781 8.1464844 C 6.8050976 8.0756928 6.8605321 8.0317972 6.9160156 8.0195312 C 6.9165487 8.0192956 6.9174336 8.019764 6.9179688 8.0195312 C 6.9555975 8.003166 6.9977492 7.9921875 7.0429688 7.9921875 L 9.4238281 7.9921875 C 9.4494329 7.9921875 9.4725547 7.9983373 9.4960938 8.0039062 C 9.4260224 7.8702827 9.3847656 7.7162091 9.3847656 7.5527344 C 9.3847656 7.0396797 9.7778847 6.625 10.263672 6.625 z M 7.2363281 8.9453125 L 6.546875 10.246094 C 6.5884725 10.266719 6.6306519 10.287789 6.6738281 10.310547 L 7.1523438 10.5625 L 7.8769531 8.9453125 L 7.2363281 8.9453125 z M 9.3691406 10.064453 L 8.765625 11.414062 L 9.4667969 11.783203 L 9.3691406 10.064453 z "
     style="fill:#3366cc;fill-opacity:1" />
  <style
     id="style1015">
		tspan { white-space:pre }
		.shp0 { opacity: 0.18;fill: #000000 } 
		.shp1 { fill: url(#grd1) } 
		.shp2 { fill: url(#grd2) } 
		.shp3 { fill: none;stroke: url(#grd3);stroke-linejoin:round;stroke-width: 11.52 } 
		.shp4 { fill: url(#grd4) } 
		.shp5 { fill: url(#grd5) } 
		.shp6 { fill: #000000 } 
		.shp7 { fill: #000002 } 
	</style>
</svg>
